<svg data-v-423bf9ae="" xmlns="http://www.w3.org/2000/svg" viewBox="0 0 451.7522144865827 60" class="font"><!----><!----><!----><g data-v-423bf9ae="" id="ffc8029a-8bed-41a9-bcca-9c89655b8b2f" fill="black" transform="matrix(5.309734423650313,0,0,5.309734423650313,-2.0177050527736355,-17.09734571132247)"><path d="M1.51 4.58L1.51 5.89L4.70 5.89L4.70 11.52C4.70 12.59 4.16 13.10 3.32 13.10C2.46 13.10 2.00 12.57 1.83 11.75L0.38 12.07C0.64 13.52 1.62 14.52 3.32 14.52C5.12 14.52 6.29 13.40 6.29 11.69L6.29 4.58ZM12.94 14.35L14.46 14.35L14.46 7.07L12.94 7.07L12.94 11.94C12.94 12.80 12.17 13.20 11.38 13.20C10.44 13.20 9.98 12.61 9.98 11.51L9.98 7.07L8.46 7.07L8.46 11.70C8.46 13.50 9.34 14.52 10.84 14.52C12.04 14.52 12.61 13.86 12.88 13.15L12.94 13.15ZM19.18 14.35L19.18 13.10L18.17 13.10L18.17 3.99L16.65 3.99L16.65 12.84C16.65 13.78 17.16 14.35 18.20 14.35ZM23.49 14.52C24.85 14.52 25.91 13.93 26.46 13.05L25.56 12.17C25.14 12.84 24.54 13.26 23.65 13.26C22.41 13.26 21.73 12.46 21.73 11.34L21.73 11.10L26.73 11.10L26.73 10.53C26.73 8.51 25.63 6.90 23.49 6.90C21.42 6.90 20.15 8.39 20.15 10.71C20.15 13.03 21.42 14.52 23.49 14.52ZM23.49 8.09C24.50 8.09 25.12 8.83 25.12 9.95L25.12 10.09L21.73 10.09L21.73 10.00C21.73 8.88 22.44 8.09 23.49 8.09ZM30.73 14.52C32.48 14.52 33.61 13.58 33.61 12.18C33.61 11.00 32.90 10.30 31.30 10.07L30.63 9.98C29.86 9.86 29.51 9.60 29.51 9.04C29.51 8.50 29.90 8.13 30.74 8.13C31.53 8.13 32.14 8.51 32.52 8.96L33.46 8.06C32.80 7.34 32.06 6.90 30.74 6.90C29.15 6.90 28.04 7.73 28.04 9.14C28.04 10.49 28.95 11.13 30.44 11.31L31.11 11.40C31.86 11.49 32.14 11.84 32.14 12.31C32.14 12.92 31.70 13.29 30.81 13.29C29.95 13.29 29.29 12.89 28.76 12.25L27.78 13.15C28.46 14 29.36 14.52 30.73 14.52ZM40.33 14.35L40.33 10.46L42.95 10.46C44.74 10.46 45.79 9.30 45.79 7.52C45.79 5.74 44.74 4.58 42.95 4.58L38.75 4.58L38.75 14.35ZM40.33 5.96L42.85 5.96C43.65 5.96 44.13 6.40 44.13 7.18L44.13 7.85C44.13 8.64 43.65 9.07 42.85 9.07L40.33 9.07ZM48.80 14.35L48.80 9.70C48.80 8.95 49.48 8.54 50.68 8.54L51.28 8.54L51.28 7.07L50.88 7.07C49.71 7.07 49.08 7.73 48.87 8.47L48.80 8.47L48.80 7.07L47.28 7.07L47.28 14.35ZM57.25 3.86L55.92 3.22L54.64 5.74L55.59 6.20ZM55.43 14.52C56.78 14.52 57.85 13.93 58.39 13.05L57.50 12.17C57.08 12.84 56.48 13.26 55.58 13.26C54.35 13.26 53.66 12.46 53.66 11.34L53.66 11.10L58.66 11.10L58.66 10.53C58.66 8.51 57.57 6.90 55.43 6.90C53.35 6.90 52.08 8.39 52.08 10.71C52.08 13.03 53.35 14.52 55.43 14.52ZM55.43 8.09C56.43 8.09 57.05 8.83 57.05 9.95L57.05 10.09L53.66 10.09L53.66 10.00C53.66 8.88 54.38 8.09 55.43 8.09ZM63.60 14.35L66.11 7.07L64.65 7.07L63.52 10.39L62.78 12.94L62.69 12.94L61.95 10.39L60.84 7.07L59.33 7.07L61.81 14.35ZM70.14 14.52C72.17 14.52 73.49 13.03 73.49 10.71C73.49 8.39 72.17 6.90 70.14 6.90C68.11 6.90 66.79 8.39 66.79 10.71C66.79 13.03 68.11 14.52 70.14 14.52ZM70.14 13.26C69.10 13.26 68.40 12.61 68.40 11.33L68.40 10.09C68.40 8.81 69.10 8.16 70.14 8.16C71.18 8.16 71.88 8.81 71.88 10.09L71.88 11.33C71.88 12.61 71.18 13.26 70.14 13.26ZM77.49 14.52C79.24 14.52 80.37 13.58 80.37 12.18C80.37 11.00 79.66 10.30 78.06 10.07L77.39 9.98C76.62 9.86 76.27 9.60 76.27 9.04C76.27 8.50 76.66 8.13 77.50 8.13C78.29 8.13 78.90 8.51 79.28 8.96L80.22 8.06C79.56 7.34 78.82 6.90 77.50 6.90C75.91 6.90 74.80 7.73 74.80 9.14C74.80 10.49 75.71 11.13 77.20 11.31L77.87 11.40C78.62 11.49 78.90 11.84 78.90 12.31C78.90 12.92 78.46 13.29 77.57 13.29C76.71 13.29 76.05 12.89 75.52 12.25L74.54 13.15C75.22 14 76.12 14.52 77.49 14.52ZM85.34 14.35L85.34 13.10L83.93 13.10L83.93 8.32L85.46 8.32L85.46 7.07L83.93 7.07L83.93 5.08L82.56 5.08L82.56 6.36C82.56 6.86 82.39 7.07 81.89 7.07L81.27 7.07L81.27 8.32L82.40 8.32L82.40 12.77C82.40 13.76 82.96 14.35 84.01 14.35Z"></path></g><!----><!----></svg>